<?xml version="1.0" encoding="utf-8"?><!DOCTYPE svg PUBLIC "-//W3C//DTD SVG 1.1//EN" "http://www.w3.org/Graphics/SVG/1.1/DTD/svg11.dtd"><svg xmlns="http://www.w3.org/2000/svg" xmlns:xlink="http://www.w3.org/1999/xlink"><symbol viewBox="0 0 16 16" id="file-plus2" xmlns="http://www.w3.org/2000/svg"><path d="M11 4h3.627a6.38 6.38 0 0 0-.286-.421c-.347-.473-.831-1.027-1.362-1.558S11.894 1.006 11.421.659A6.38 6.38 0 0 0 11 .373V4z"/><path d="M7.875 12.5A4.63 4.63 0 0 1 12.5 7.875c.92 0 1.779.27 2.5.736V5h-4.5a.5.5 0 0 1-.5-.5V0H2.25C1.561 0 1 .561 1 1.25v13.5c0 .689.561 1.25 1.25 1.25h7.23a4.617 4.617 0 0 1-1.605-3.5z"/><path d="M12.5 9a3.5 3.5 0 1 0 0 7 3.5 3.5 0 0 0 0-7zm.5 4v2h-1v-2h-2v-1h2v-2h1v2h2v1h-2z"/></symbol><symbol viewBox="0 0 16 16" id="floppy-disks" xmlns="http://www.w3.org/2000/svg"><path d="M11 6h1v2h-1V6z"/><path d="M13.5 5H11V2.5L8.5 0h-8C.225 0 0 .225 0 .5v10c0 .275.225.5.5.5H5v4.5c0 .275.225.5.5.5h10c.275 0 .5-.225.5-.5v-8L13.5 5zm-.5.5v3c0 .275-.225.5-.5.5h-4a.501.501 0 0 1-.5-.5v-3h5zM5 10H2V7.5a.5.5 0 0 1 .5-.5H5v3zM3.5 4a.501.501 0 0 1-.5-.5v-3h5v3c0 .275-.225.5-.5.5h-4zM14 15H7v-2.5a.5.5 0 0 1 .5-.5h6a.5.5 0 0 1 .5.5V15z"/><path d="M6 1h1v2H6V1z"/></symbol><symbol viewBox="0 0 16 16" id="folder-open" xmlns="http://www.w3.org/2000/svg"><path d="M13 15l3-8H3l-3 8zM2 6l-2 9V2h4.5l2 2H13v2z"/></symbol></svg>